# xmcd
#
# Track frame offsets:
#	150
#	18724
#	28814
#	46750
#	64378
#	80118
#	99192
#	110995
#	130082
#	146120
#	168608
#	188848
#	212892
#	226390
#	242130
#	263774
#	289621
#	313906
#	337493
#
# Disc length: 4724 seconds
#
# Revision: 1
# Processed by: cddbd v1.5.1PL0 Copyright (c) Steve Scherf et al.
# Submitted via: EasyCDDAExtractor 7.1.0.1
#
DISCID=2e127213
DTITLE=Various Artist - Most Rated CD2
DYEAR=2004
DGENRE=House
TTITLE0=Junior Jack - Stupidisco
TTITLE1=Eric Prydz - Call On Me
TTITLE2=Kid Cream Ft. Shurakano - Doing My Own Thing
TTITLE3=M-Gee - Body Swerve
TTITLE4=Ripgroove - Double 99
TTITLE5=Mylo - Drop The Pressure
TTITLE6=Chicken Lips - He Not In
TTITLE7=Seamus Haji - Last Night A DJ Saved My Life
TTITLE8=Bobby Blanco and Miki Moko - 3am (Fuzzy Hair Remix)
TTITLE9=Praise Cats - Shined On Me (Bini and Martini Vocal mix)
TTITLE10=Kings Of Tomorrow - Thru (Junior Jack mix)
TTITLE11=Harry Choo Choo - I Go Back
TTITLE12=Tiga - Pleasure From The Bass
TTITLE13=Junior Jack - Da Hype
TTITLE14=Jacque - Love Will Save The Day
TTITLE15=Hardsoul Ft. Ron Carroll - Back Together
TTITLE16=Glory ft.JOCELYN Brown - Hold Me Up
TTITLE17=DJ Rhythm Pres. Soul Theory - Drama (Warren Clarke Drama Mix)
TTITLE18=Soul Central - Strings Of Life (Danny Krivit ReEdit)
EXTD=
EXTT0=
EXTT1=
EXTT2=
EXTT3=
EXTT4=
EXTT5=
EXTT6=
EXTT7=
EXTT8=
EXTT9=
EXTT10=
EXTT11=
EXTT12=
EXTT13=
EXTT14=
EXTT15=
EXTT16=
EXTT17=
EXTT18=
PLAYORDER=
